ffmpeg started on 2025-06-27 at 10:21:37
Report written to "D:\Convert\FFMetrics\reports\ssim_report-6.txt"
Log level: 32
Command line:
ffmpeg -hide_banner -nostdin -i "G:\\\xc0\xed\xe8\xec\xe5\\[\xd2\xee\xef-4]\\\xd2\xee\xea\xe8\xe9\xf1\xea\xe8\xe9 \xc3\xf3\xeb\xfc\\\xd2\xc2-4\\Tokyo_Ghoul_Re_[14]_[AniLibria_TV]_[HDTVRip_720p]_HEVC.mkv" -i "G:\\\xc0\xed\xe8\xec\xe5\\[\xd2\xee\xef-4]\\\xd2\xee\xea\xe8\xe9\xf1\xea\xe8\xe9 \xc3\xf3\xeb\xfc\\\xd2\xc2-4\\Tokyo_Ghoul_Re_[14]_[AniLibria_TV]_[HDTVRip_720p].mkv" -lavfi "[0:v]settb=AVTB,setpts=PTS-STARTPTS,format=pix_fmts=yuv420p10,fps=24000/1001,scale=1280:720:flags=bicubic[main];[1:v]settb=AVTB,setpts=PTS-STARTPTS,format=pix_fmts=yuv420p,fps=24000/1001,scale=1280:720:flags=bicubic[ref];[main][ref]ssim=eof_action=endall:stats_file='D\\:/Convert/FFMetrics/logs/ssim_logfile-6.txt'" -f null -
Input #0, matroska,webm, from 'G:\Аниме\[Топ-4]\Токийский Гуль\ТВ-4\Tokyo_Ghoul_Re_[14]_[AniLibria_TV]_[HDTVRip_720p]_HEVC.mkv':
  Metadata:
    ENCODER         : Lavf61.7.100
  Duration: 00:24:30.10, start: -0.021000, bitrate: 865 kb/s
  Stream #0:0(jpn): Video: hevc (Main 10), yuv420p10le(tv, bt709, progressive), 1280x720 [SAR 1:1 DAR 16:9], 23.98 fps, 23.98 tbr, 1k tbn (default)
      Metadata:
        ENCODER         : Lavc61.19.100 libx265
        BPS             : 666953
        DURATION        : 00:24:30.010708333
        NUMBER_OF_FRAMES: 35245
        NUMBER_OF_BYTES : 122553507
        _STATISTICS_WRITING_APP: mkvpropedit v66.0.0 ('Josie') 64-bit
        _STATISTICS_WRITING_DATE_UTC: 2025-06-26 15:16:57
        _STATISTICS_TAGS: BPS DURATION NUMBER_OF_FRAMES NUMBER_OF_BYTES
  Stream #0:1(rus): Audio: aac (LC), 48000 Hz, stereo, fltp (default) (forced)
      Metadata:
        title           : AniLibria.TV
        ENCODER         : Lavc61.19.100 aac
        BPS             : 194080
        DURATION        : 00:24:30.080000000
        NUMBER_OF_FRAMES: 68911
        NUMBER_OF_BYTES : 35664165
        _STATISTICS_WRITING_APP: mkvpropedit v66.0.0 ('Josie') 64-bit
        _STATISTICS_WRITING_DATE_UTC: 2025-06-26 15:16:57
        _STATISTICS_TAGS: BPS DURATION NUMBER_OF_FRAMES NUMBER_OF_BYTES
  Stream #0:2(rus): Subtitle: ass (ssa) (default) (forced)
      Metadata:
        title           : Надписи
        BPS             : 13
        DURATION        : 00:22:19.550000000
        NUMBER_OF_FRAMES: 15
        NUMBER_OF_BYTES : 2311
        _STATISTICS_WRITING_APP: mkvpropedit v66.0.0 ('Josie') 64-bit
        _STATISTICS_WRITING_DATE_UTC: 2025-06-26 15:16:57
        _STATISTICS_TAGS: BPS DURATION NUMBER_OF_FRAMES NUMBER_OF_BYTES
  Stream #0:3(rus): Subtitle: ass (ssa)
      Metadata:
        title           : Полные
        BPS             : 91
        DURATION        : 00:24:00.140000000
        NUMBER_OF_FRAMES: 256
        NUMBER_OF_BYTES : 16488
        _STATISTICS_WRITING_APP: mkvpropedit v66.0.0 ('Josie') 64-bit
        _STATISTICS_WRITING_DATE_UTC: 2025-06-26 15:16:57
        _STATISTICS_TAGS: BPS DURATION NUMBER_OF_FRAMES NUMBER_OF_BYTES
[matroska,webm @ 000001f0ea33e580] Could not find codec parameters for stream 15 (Attachment: none): unknown codec
Consider increasing the value for the 'analyzeduration' (0) and 'probesize' (5000000) options
Input #1, matroska,webm, from 'G:\Аниме\[Топ-4]\Токийский Гуль\ТВ-4\Tokyo_Ghoul_Re_[14]_[AniLibria_TV]_[HDTVRip_720p].mkv':
  Metadata:
    encoder         : libebml v1.4.2 + libmatroska v1.6.4
    creation_time   : 2024-12-27T09:48:05.000000Z
  Duration: 00:24:30.08, start: 0.000000, bitrate: 2388 kb/s
  Stream #1:0(jpn): Video: h264 (Main), yuv420p(tv, bt709, progressive), 1280x720, SAR 1:1 DAR 16:9, 23.98 fps, 23.98 tbr, 1k tbn (default)
      Metadata:
        BPS             : 2183221
        DURATION        : 00:24:30.011000000
        NUMBER_OF_FRAMES: 35245
        NUMBER_OF_BYTES : 401169958
        _STATISTICS_WRITING_APP: mkvmerge v66.0.0 ('Josie') 64-bit
        _STATISTICS_WRITING_DATE_UTC: 2024-12-27 09:48:05
        _STATISTICS_TAGS: BPS DURATION NUMBER_OF_FRAMES NUMBER_OF_BYTES
  Stream #1:1(rus): Audio: aac (LC), 48000 Hz, stereo, fltp (default) (forced)
      Metadata:
        title           : AniLibria.TV
        BPS             : 192092
        DURATION        : 00:24:30.080000000
        NUMBER_OF_FRAMES: 68910
        NUMBER_OF_BYTES : 35298831
        _STATISTICS_WRITING_APP: mkvmerge v66.0.0 ('Josie') 64-bit
        _STATISTICS_WRITING_DATE_UTC: 2024-12-27 09:48:05
        _STATISTICS_TAGS: BPS DURATION NUMBER_OF_FRAMES NUMBER_OF_BYTES
  Stream #1:2(rus): Subtitle: ass (ssa) (default) (forced)
      Metadata:
        title           : Надписи
        BPS             : 13
        DURATION        : 00:22:19.550000000
        NUMBER_OF_FRAMES: 15
        NUMBER_OF_BYTES : 2311
        _STATISTICS_WRITING_APP: mkvmerge v66.0.0 ('Josie') 64-bit
        _STATISTICS_WRITING_DATE_UTC: 2024-12-27 09:48:05
        _STATISTICS_TAGS: BPS DURATION NUMBER_OF_FRAMES NUMBER_OF_BYTES
  Stream #1:3(rus): Subtitle: ass (ssa)
      Metadata:
        title           : Полные
        BPS             : 91
        DURATION        : 00:24:00.140000000
        NUMBER_OF_FRAMES: 256
        NUMBER_OF_BYTES : 16488
        _STATISTICS_WRITING_APP: mkvmerge v66.0.0 ('Josie') 64-bit
        _STATISTICS_WRITING_DATE_UTC: 2024-12-27 09:48:05
        _STATISTICS_TAGS: BPS DURATION NUMBER_OF_FRAMES NUMBER_OF_BYTES
  Stream #1:4: Attachment: ttf
      Metadata:
        filename        : 10322__2.ttf
        mimetype        : application/x-truetype-font
  Stream #1:5: Attachment: ttf
      Metadata:
        filename        : 10352__0.ttf
        mimetype        : application/x-truetype-font
  Stream #1:6: Attachment: ttf
      Metadata:
        filename        : Aero Matics Display Bold Italic.ttf
        mimetype        : application/x-truetype-font
  Stream #1:7: Attachment: ttf
      Metadata:
        filename        : Aero Matics Display Bold.ttf
        mimetype        : application/x-truetype-font
  Stream #1:8: Attachment: ttf
      Metadata:
        filename        : Aero Matics Display Italic.ttf
        mimetype        : application/x-truetype-font
  Stream #1:9: Attachment: ttf
      Metadata:
        filename        : Aero Matics Display Light Italic.ttf
        mimetype        : application/x-truetype-font
  Stream #1:10: Attachment: ttf
      Metadata:
        filename        : Aero Matics Display Light.ttf
        mimetype        : application/x-truetype-font
  Stream #1:11: Attachment: ttf
      Metadata:
        filename        : Aero_Matics_Display_Regular.ttf
        mimetype        : application/x-truetype-font
  Stream #1:12: Attachment: ttf
      Metadata:
        filename        : BenchNine-Regular.ttf
        mimetype        : application/x-truetype-font
  Stream #1:13: Attachment: ttf
      Metadata:
        filename        : OpenSanA.ttf
        mimetype        : application/x-truetype-font
  Stream #1:14: Attachment: ttf
      Metadata:
        filename        : REDOCTOB.otf
        mimetype        : application/x-truetype-font
  Stream #1:15: Attachment: none
      Metadata:
        filename        : simsun_0.ttc
        mimetype        : application/octet-stream
  Stream #1:16: Attachment: ttf
      Metadata:
        filename        : Snowstorm.ttf
        mimetype        : application/x-truetype-font
  Stream #1:17: Attachment: ttf
      Metadata:
        filename        : TEMPSITC.TTF
        mimetype        : application/x-truetype-font
  Stream #1:18: Attachment: ttf
      Metadata:
        filename        : TrajanPro3-Bold.otf
        mimetype        : application/x-truetype-font
  Stream #1:19: Attachment: ttf
      Metadata:
        filename        : TrajanPro3-Regular.otf
        mimetype        : application/x-truetype-font
  Stream #1:20: Attachment: ttf
      Metadata:
        filename        : v_CCTimSale_v1.11.ttf
        mimetype        : application/x-truetype-font
  Stream #1:21: Attachment: ttf
      Metadata:
        filename        : v_HolyMackerelli_v1.9.ttf
        mimetype        : application/x-truetype-font
  Stream #1:22: Attachment: ttf
      Metadata:
        filename        : v_StraightJacketBB_v1.1.ttf
        mimetype        : application/x-truetype-font
  Stream #1:23: Attachment: ttf
      Metadata:
        filename        : XENI.TTF
        mimetype        : application/x-truetype-font
Stream mapping:
  Stream #0:0 (hevc) -> settb:default
  Stream #1:0 (h264) -> settb:default
  ssim:default -> Stream #0:0 (wrapped_avframe)
  Stream #0:1 -> #0:1 (aac (native) -> pcm_s16le (native))
Output #0, null, to 'pipe:':
  Metadata:
    encoder         : Lavf61.7.100
  Stream #0:0: Video: wrapped_avframe, yuv420p10le(tv, bt709, progressive), 1280x720 [SAR 1:1 DAR 16:9], q=2-31, 200 kb/s, 23.98 fps, 23.98 tbn
      Metadata:
        encoder         : Lavc61.19.100 wrapped_avframe
  Stream #0:1(rus): Audio: pcm_s16le, 48000 Hz, stereo, s16, 1536 kb/s (default) (forced)
      Metadata:
        title           : AniLibria.TV
        _STATISTICS_TAGS: BPS DURATION NUMBER_OF_FRAMES NUMBER_OF_BYTES
        BPS             : 194080
        DURATION        : 00:24:30.080000000
        NUMBER_OF_FRAMES: 68911
        NUMBER_OF_BYTES : 35664165
        _STATISTICS_WRITING_APP: mkvpropedit v66.0.0 ('Josie') 64-bit
        _STATISTICS_WRITING_DATE_UTC: 2025-06-26 15:16:57
        encoder         : Lavc61.19.100 pcm_s16le
frame=  359 fps=0.0 q=-0.0 size=N/A time=00:00:14.97 bitrate=N/A speed=28.7x    frame=  855 fps=829 q=-0.0 size=N/A time=00:00:35.66 bitrate=N/A speed=34.6x    frame= 1388 fps=893 q=-0.0 size=N/A time=00:00:57.89 bitrate=N/A speed=37.2x    frame= 1957 fps=947 q=-0.0 size=N/A time=00:01:21.62 bitrate=N/A speed=39.5x    frame= 2470 fps=959 q=-0.0 size=N/A time=00:01:43.01 bitrate=N/A speed=  40x    frame= 2933 fps=946 q=-0.0 size=N/A time=00:02:02.33 bitrate=N/A speed=39.4x    frame= 3388 fps=938 q=-0.0 size=N/A time=00:02:21.30 bitrate=N/A speed=39.1x    frame= 3706 fps=899 q=-0.0 size=N/A time=00:02:34.57 bitrate=N/A speed=37.5x    frame= 4132 fps=889 q=-0.0 size=N/A time=00:02:52.33 bitrate=N/A speed=37.1x    frame= 4645 fps=900 q=-0.0 size=N/A time=00:03:13.73 bitrate=N/A speed=37.6x    frame= 5072 fps=894 q=-0.0 size=N/A time=00:03:31.54 bitrate=N/A speed=37.3x    frame= 5456 fps=881 q=-0.0 size=N/A time=00:03:47.56 bitrate=N/A speed=36.7x    frame= 5807 fps=866 q=-0.0 size=N/A time=00:04:02.20 bitrate=N/A speed=36.1x    frame= 6201 fps=859 q=-0.0 size=N/A time=00:04:18.63 bitrate=N/A speed=35.8x    frame= 6661 fps=861 q=-0.0 size=N/A time=00:04:37.81 bitrate=N/A speed=35.9x    frame= 7061 fps=856 q=-0.0 size=N/A time=00:04:54.50 bitrate=N/A speed=35.7x    frame= 7515 fps=857 q=-0.0 size=N/A time=00:05:13.43 bitrate=N/A speed=35.7x    frame= 8057 fps=868 q=-0.0 size=N/A time=00:05:36.04 bitrate=N/A speed=36.2x    frame= 8626 fps=880 q=-0.0 size=N/A time=00:05:59.77 bitrate=N/A speed=36.7x    frame= 9173 fps=888 q=-0.0 size=N/A time=00:06:22.59 bitrate=N/A speed=  37x    frame= 9623 fps=887 q=-0.0 size=N/A time=00:06:41.35 bitrate=N/A speed=  37x    frame=10077 fps=887 q=-0.0 size=N/A time=00:07:00.29 bitrate=N/A speed=  37x    frame=10524 fps=886 q=-0.0 size=N/A time=00:07:18.93 bitrate=N/A speed=36.9x    frame=10994 fps=887 q=-0.0 size=N/A time=00:07:38.54 bitrate=N/A speed=  37x    frame=11482 fps=890 q=-0.0 size=N/A time=00:07:58.89 bitrate=N/A speed=37.1x    frame=11854 fps=883 q=-0.0 size=N/A time=00:08:14.41 bitrate=N/A speed=36.8x    frame=12347 fps=886 q=-0.0 size=N/A time=00:08:34.97 bitrate=N/A speed=  37x    frame=12632 fps=874 q=-0.0 size=N/A time=00:08:46.85 bitrate=N/A speed=36.4x    frame=13056 fps=872 q=-0.0 size=N/A time=00:09:04.58 bitrate=N/A speed=36.4x    frame=13531 fps=874 q=-0.0 size=N/A time=00:09:24.35 bitrate=N/A speed=36.5x    frame=13962 fps=872 q=-0.0 size=N/A time=00:09:42.33 bitrate=N/A speed=36.4x    frame=14353 fps=869 q=-0.0 size=N/A time=00:09:58.63 bitrate=N/A speed=36.2x    frame=14845 fps=872 q=-0.0 size=N/A time=00:10:19.16 bitrate=N/A speed=36.4x    frame=15204 fps=866 q=-0.0 size=N/A time=00:10:34.13 bitrate=N/A speed=36.1x    frame=15456 fps=856 q=-0.0 size=N/A time=00:10:44.64 bitrate=N/A speed=35.7x    frame=15755 fps=848 q=-0.0 size=N/A time=00:10:57.11 bitrate=N/A speed=35.4x    frame=16175 fps=847 q=-0.0 size=N/A time=00:11:14.63 bitrate=N/A speed=35.3x    frame=16671 fps=850 q=-0.0 size=N/A time=00:11:35.31 bitrate=N/A speed=35.4x    frame=17184 fps=854 q=-0.0 size=N/A time=00:11:56.71 bitrate=N/A speed=35.6x    frame=17634 fps=854 q=-0.0 size=N/A time=00:12:15.48 bitrate=N/A speed=35.6x    frame=18149 fps=858 q=-0.0 size=N/A time=00:12:36.96 bitrate=N/A speed=35.8x    frame=18481 fps=853 q=-0.0 size=N/A time=00:12:50.81 bitrate=N/A speed=35.6x    frame=18919 fps=852 q=-0.0 size=N/A time=00:13:09.07 bitrate=N/A speed=35.6x    frame=19303 fps=850 q=-0.0 size=N/A time=00:13:25.09 bitrate=N/A speed=35.5x    frame=19846 fps=855 q=-0.0 size=N/A time=00:13:47.74 bitrate=N/A speed=35.6x    frame=20397 fps=860 q=-0.0 size=N/A time=00:14:10.72 bitrate=N/A speed=35.8x    frame=20866 fps=860 q=-0.0 size=N/A time=00:14:30.28 bitrate=N/A speed=35.9x    frame=21363 fps=863 q=-0.0 size=N/A time=00:14:51.01 bitrate=N/A speed=  36x    frame=21785 fps=861 q=-0.0 size=N/A time=00:15:08.61 bitrate=N/A speed=35.9x    frame=22283 fps=864 q=-0.0 size=N/A time=00:15:29.38 bitrate=N/A speed=  36x    frame=22809 fps=867 q=-0.0 size=N/A time=00:15:51.32 bitrate=N/A speed=36.2x    frame=23157 fps=863 q=-0.0 size=N/A time=00:16:05.83 bitrate=N/A speed=  36x    frame=23456 fps=858 q=-0.0 size=N/A time=00:16:18.31 bitrate=N/A speed=35.8x    frame=23846 fps=856 q=-0.0 size=N/A time=00:16:34.57 bitrate=N/A speed=35.7x    frame=24378 fps=859 q=-0.0 size=N/A time=00:16:56.76 bitrate=N/A speed=35.8x    frame=24896 fps=862 q=-0.0 size=N/A time=00:17:18.37 bitrate=N/A speed=35.9x    frame=25424 fps=865 q=-0.0 size=N/A time=00:17:40.39 bitrate=N/A speed=36.1x    frame=25995 fps=869 q=-0.0 size=N/A time=00:18:04.20 bitrate=N/A speed=36.2x    frame=26511 fps=870 q=-0.0 size=N/A time=00:18:25.72 bitrate=N/A speed=36.3x    frame=26948 fps=870 q=-0.0 size=N/A time=00:18:43.95 bitrate=N/A speed=36.3x    frame=27353 fps=869 q=-0.0 size=N/A time=00:19:00.84 bitrate=N/A speed=36.2x    frame=27709 fps=866 q=-0.0 size=N/A time=00:19:15.69 bitrate=N/A speed=36.1x    frame=28074 fps=863 q=-0.0 size=N/A time=00:19:30.91 bitrate=N/A speed=  36x    frame=28425 fps=860 q=-0.0 size=N/A time=00:19:45.55 bitrate=N/A speed=35.9x    frame=28815 fps=859 q=-0.0 size=N/A time=00:20:01.82 bitrate=N/A speed=35.8x    frame=29334 fps=861 q=-0.0 size=N/A time=00:20:23.47 bitrate=N/A speed=35.9x    frame=29910 fps=865 q=-0.0 size=N/A time=00:20:47.49 bitrate=N/A speed=36.1x    frame=30373 fps=865 q=-0.0 size=N/A time=00:21:06.80 bitrate=N/A speed=36.1x    frame=30856 fps=867 q=-0.0 size=N/A time=00:21:26.95 bitrate=N/A speed=36.1x    frame=31403 fps=869 q=-0.0 size=N/A time=00:21:49.76 bitrate=N/A speed=36.2x    frame=31947 fps=872 q=-0.0 size=N/A time=00:22:12.45 bitrate=N/A speed=36.4x    frame=32378 fps=872 q=-0.0 size=N/A time=00:22:30.43 bitrate=N/A speed=36.4x    frame=32823 fps=871 q=-0.0 size=N/A time=00:22:48.99 bitrate=N/A speed=36.3x    frame=33214 fps=870 q=-0.0 size=N/A time=00:23:05.30 bitrate=N/A speed=36.3x    frame=33579 fps=868 q=-0.0 size=N/A time=00:23:20.52 bitrate=N/A speed=36.2x    frame=33951 fps=866 q=-0.0 size=N/A time=00:23:36.03 bitrate=N/A speed=36.1x    frame=34443 fps=867 q=-0.0 size=N/A time=00:23:56.56 bitrate=N/A speed=36.1x    frame=34962 fps=869 q=-0.0 size=N/A time=00:24:18.20 bitrate=N/A speed=36.2x    [Parsed_ssim_10 @ 000001f0eac7b3c0] SSIM Y:0.990374 (20.165698) U:0.993297 (21.737524) V:0.993611 (21.945466) All:0.991401 (20.655471)
[out#0/null @ 000001f0ea29bec0] video:15144KiB audio:275644KiB subtitle:0KiB other streams:0KiB global headers:0KiB muxing overhead: unknown
frame=35245 fps=871 q=-0.0 Lsize=N/A time=00:24:30.01 bitrate=N/A speed=36.3x    
